<svg width="117" height="24" viewBox="0 0 117 24" fill="none" xmlns="http://www.w3.org/2000/svg">
<path d="M31.5225 18.6035H29V6H37.8242V8.52246H31.5225V11.0449H35.3018V13.5674H31.5225V18.6035Z" fill="#1E293B"/>
<path d="M49.0654 13.5674C49.0654 14.2646 48.9336 14.9209 48.6699 15.5361C48.4062 16.1455 48.0459 16.6787 47.5889 17.1357C47.1318 17.5869 46.5957 17.9443 45.9805 18.208C45.3711 18.4717 44.7178 18.6035 44.0205 18.6035C43.3232 18.6035 42.667 18.4717 42.0518 18.208C41.4424 17.9443 40.9092 17.5869 40.4521 17.1357C40.001 16.6787 39.6436 16.1455 39.3799 15.5361C39.1162 14.9209 38.9844 14.2646 38.9844 13.5674V6H41.498V13.5674C41.498 13.9131 41.5625 14.2383 41.6914 14.543C41.8262 14.8477 42.0078 15.1143 42.2363 15.3428C42.4648 15.5713 42.7314 15.7529 43.0361 15.8877C43.3467 16.0166 43.6748 16.0811 44.0205 16.0811C44.3662 16.0811 44.6914 16.0166 44.9961 15.8877C45.3066 15.7529 45.5762 15.5713 45.8047 15.3428C46.0332 15.1143 46.2119 14.8477 46.3408 14.543C46.4756 14.2383 46.543 13.9131 46.543 13.5674V6H49.0654V13.5674Z" fill="#1E293B"/>
<path d="M61.335 18.6035H58.6367L53.7764 10.3066V18.6035H51.2539V6H53.9521L58.8125 14.3057V6H61.335V18.6035Z" fill="#1E293B"/>
<path d="M73.7627 18.6035H71.0645L66.2041 10.3066V18.6035H63.6816V6H66.3799L71.2402 14.3057V6H73.7627V18.6035Z" fill="#1E293B"/>
<path d="M84.749 18.6035H76.1094V6H84.749V8.52246H78.6318V11.0449H82.7715V13.5674H78.6318V16.0811H84.749V18.6035Z" fill="#1E293B"/>
<path d="M95.3398 18.6035H86.5156V6H89.0381V16.0811H95.3398V18.6035Z" fill="#1E293B"/>
<path d="M99.1807 18.6035H96.6582V6H105.482V8.52246H99.1807V11.0449H102.96V13.5674H99.1807V18.6035Z" fill="#7D45E9"/>
<path d="M112.452 18.6035H109.938V14.6572C109.382 14.5166 108.869 14.291 108.4 13.9805C107.938 13.6699 107.539 13.3008 107.205 12.873C106.871 12.4395 106.61 11.9619 106.423 11.4404C106.241 10.9131 106.15 10.3594 106.15 9.7793V6H108.673V9.7793C108.673 10.125 108.737 10.4531 108.866 10.7637C109.001 11.0684 109.183 11.335 109.411 11.5635C109.64 11.792 109.906 11.9736 110.211 12.1084C110.521 12.2373 110.85 12.3018 111.195 12.3018C111.541 12.3018 111.866 12.2373 112.171 12.1084C112.481 11.9736 112.751 11.792 112.979 11.5635C113.208 11.335 113.387 11.0684 113.516 10.7637C113.65 10.4531 113.718 10.125 113.718 9.7793V6H116.231V9.7793C116.231 10.3594 116.138 10.9131 115.95 11.4404C115.769 11.9619 115.511 12.4395 115.177 12.873C114.843 13.3008 114.444 13.6699 113.981 13.9805C113.519 14.291 113.009 14.5166 112.452 14.6572V18.6035Z" fill="#7D45E9"/>
<path d="M22 3H2L10 12.46V19L14 21V12.46L22 3Z" stroke="#7D45E9" stroke-width="2.5" stroke-linecap="round" stroke-linejoin="round"/>
</svg>
